HIERARCHY
ROOT Hips
{
	OFFSET 0.00000 0.00000 0.00000
	CHANNELS 6 Xposition Yposition Zposition Yrotation Zrotation Xrotation 
	JOINT Lumbar
	{
		OFFSET 0 0 0
		CHANNELS 3 Zrotation Xrotation Yrotation
		JOINT Neck
		{
			OFFSET 0.00 0.2701 0.00
			CHANNELS 3 Zrotation Xrotation Yrotation
			End Site
			{
				OFFSET 0.00 0.1379 0.00
			}
		}
		JOINT RightShoulder
		{
			OFFSET 0.0119 0.2289 0.1181
			CHANNELS 3 Zrotation Xrotation Yrotation
			JOINT RightElbow
			{
				OFFSET 0.00 -0.1475 0.00
				CHANNELS 2 Zrotation Yrotation
				JOINT RightWrist
				{
					OFFSET 0.00 -0.1605 0.00
					CHANNELS 2 Zrotation Xrotation
					End Site
					{
						OFFSET 0.0040 -0.1068 0.0006
					}
				}
			}
		}
		JOINT LeftShoulder
		{
			OFFSET 0.0119 0.2289 -0.1181
			CHANNELS 3 Zrotation Xrotation Yrotation
			JOINT LeftElbow
			{
				OFFSET 0.00 -0.1475 0.00
				CHANNELS 2 Zrotation Yrotation
				JOINT LeftWrist
				{
					OFFSET 0.00 -0.1605 0.00
					CHANNELS 2 Zrotation Xrotation
					End Site
					{
						OFFSET 0.0040 -0.1068 -0.0006
					}
				}
			}
		}
	}
	JOINT RightHip
	{
		OFFSET 0.0316 -0.0424 0.0458
		CHANNELS 3 Zrotation Xrotation Yrotation
		JOINT RightKnee
		{
			OFFSET 0.00 -0.2438 0.00
			CHANNELS 1 Zrotation
			JOINT RightAnkle
			{
				OFFSET 0.00 -0.2449 0.00
				CHANNELS 3 Zrotation Xrotation Yrotation
				End Site
				{
					OFFSET 0.1237 -0.0542 0.0051
				}
			}
		}
	}
	JOINT LeftHip
	{
		OFFSET 0.0316 -0.0424 -0.0458
		CHANNELS 3 Zrotation Xrotation Yrotation
		JOINT LeftKnee
		{
			OFFSET 0.00 -0.2438 0.00
			CHANNELS 1 Zrotation
			JOINT LeftAnkle
			{
				OFFSET 0.00 -0.2449 0.00
				CHANNELS 3 Zrotation Xrotation Yrotation
				End Site
				{
					OFFSET 0.1237 -0.0542 -0.0051
				}
			}
		}
	}
}
MOTION
Frames: 13
Frame Time: 0.02
0.0834 -0.30922 0.25429 167.52519 -42.28689 -14.37559 31.70905 4.92532 -8.69964 -4.51703 9.82051 -2.11994 -24.54814 -9.55733 -17.99312 59.23552 82.44178 -6.64066 -3.84714 -3.4486 30.00572 -16.4282 107.17223 -78.42806 -10.48422 1.21169 95.97458 -21.11468 29.71377 -124.99209 -5.40809 -1.52668 -2.92934 63.99976 14.76974 -3.84491 -125.13355 -20.07404 -0.064 2.7698
0.08791 -0.31238 0.24848 168.4655 -42.31946 -13.34355 31.13987 4.81847 -8.54685 -3.78496 9.59163 -2.11994 -23.39473 -10.30183 -18.39092 57.41293 82.16694 -6.70308 -3.56833 -1.02728 29.61932 -17.61506 106.75932 -78.2856 -10.6792 1.24204 97.49032 -21.40924 30.82084 -126.07486 -5.5079 -1.5116 -2.92293 64.84678 15.03345 -4.86171 -126.15056 -20.07396 -0.11574 2.74239
0.09259 -0.31589 0.24225 169.3563 -42.41498 -12.2891 30.59119 4.71337 -8.31874 -2.95178 9.36429 -2.11994 -22.16444 -11.11535 -18.65968 55.68219 81.89766 -6.74598 -3.29987 1.28754 28.97275 -18.61334 106.41567 -78.07108 -10.89079 1.27474 99.13976 -21.79399 32.06853 -127.56858 -5.52592 -1.3857 -2.86668 65.82839 15.33339 -5.9605 -127.20672 -20.08117 -0.17197 2.71281
0.09719 -0.31927 0.2362 170.26058 -42.48017 -11.25046 30.02591 4.61321 -8.12411 -2.16214 9.13997 -2.11994 -20.9637 -11.89916 -18.98253 53.9188 81.6301 -6.80072 -3.02555 3.61923 28.42709 -19.68159 106.04116 -77.89851 -11.09693 1.30657 100.77305 -22.16547 33.22474 -128.8766 -5.42072 -1.11774 -2.74425 66.74476 15.62133 -7.04178 -128.23988 -20.08257 -0.22495 2.68477
0.10179 -0.32257 0.23017 171.21093 -42.55261 -10.18212 29.49062 4.48638 -7.93216 -1.37998 8.89946 -2.11994 -19.78264 -12.68079 -19.31835 52.11866 81.33788 -6.83844 -2.74922 6.09955 27.94869 -20.82142 105.66185 -77.68984 -11.29236 1.33726 102.22002 -22.43044 34.49951 -130.18076 -5.96775 -1.6309 -2.97995 67.67938 15.88993 -8.04232 -129.297 -20.0946 -0.28256 2.65467
0.10644 -0.3261 0.22401 172.04975 -42.62488 -9.17151 28.89892 4.41663 -7.71734 -0.5601 8.69251 -2.11994 -18.54234 -13.48371 -19.59649 50.41724 81.10085 -6.9082 -2.48334 8.23556 27.27046 -21.76501 105.31043 -77.53613 -11.51569 1.37064 104.07797 -22.92509 35.5595 -131.58962 -5.16809 -0.52924 -2.47871 68.60566 16.20686 -9.22746 -130.31209 -20.08601 -0.33211 2.62807
0.11124 -0.33011 0.21763 172.60162 -42.68128 -8.33914 28.13565 4.50206 -7.45255 0.34929 8.58627 -2.11994 -17.17112 -14.30233 -19.77479 48.95366 81.01625 -7.07789 -2.22972 9.48803 26.1069 -22.21708 105.01277 -77.57875 -11.79952 1.41559 107.13697 -24.15015 35.99683 -133.194 -0.39947 5.33427 0.22606 69.49813 16.65766 -10.92646 -131.20903 -20.0208 -0.35426 2.61394
0.11609 -0.33434 0.21113 173.04008 -42.7352 -7.56395 27.31707 4.64556 -7.16821 1.29075 8.51199 -2.11994 -15.74057 -15.14444 -19.8942 47.58805 80.9878 -7.28018 -1.98974 10.38739 24.75195 -22.4767 104.74283 -77.67512 -12.11269 1.46266 110.58674 -25.58149 36.212 -134.88699 5.6723 12.75878 3.63904 70.37276 17.15425 -12.80319 -132.06035 -19.9342 -0.36886 2.603
0.1209 -0.33848 0.20468 173.52387 -42.79042 -6.75517 26.53058 4.76415 -6.89645 2.21105 8.41828 -2.11994 -14.32923 -15.99114 -20.02531 46.18536 80.93363 -7.46369 -1.75348 11.421 23.48316 -22.821 104.46376 -77.72779 -12.42148 1.50542 113.79476 -26.84057 36.52553 -136.53651 10.9687 19.25036 6.60652 71.24227 17.62402 -14.58352 -132.92795 -19.85599 -0.38967 2.58906
0.12579 -0.34259 0.19823 174.03312 -42.84765 -5.97857 25.7146 4.87657 -6.60702 3.16389 8.34695 -2.11994 -12.94951 -16.77346 -20.22096 44.75491 80.88009 -7.66242 -1.47538 12.56573 22.20708 -23.17058 104.16981 -77.85498 -12.69547 1.56123 117.28141 -28.43319 36.8551 -138.21919 17.03635 26.68366 10.0892 72.17572 18.1206 -16.43546 -133.8173 -19.78361 -0.39914 2.58149
0.13051 -0.3468 0.19177 174.46199 -42.89861 -5.14759 24.94772 5.01553 -6.35002 4.05379 8.23449 -2.11994 -11.48879 -17.69763 -20.26292 43.40383 80.83889 -7.83842 -1.2878 13.39159 20.90611 -23.46586 103.91582 -77.84613 -13.04565 1.59179 120.27477 -29.38025 37.09653 -139.84182 21.81203 32.53206 12.67707 72.96573 18.57152 -18.17591 -134.64802 -19.69399 -0.43012 2.56159
0.13475 -0.35121 0.18531 174.70622 -42.93787 -4.16296 24.32062 5.2144 -6.19374 4.77302 8.01815 -2.11994 -9.83771 -18.98111 -19.95572 42.25229 80.81536 -7.93552 -1.34476 13.46435 19.56775 -23.65865 103.73703 -77.40279 -13.62472 1.53955 121.84405 -28.48228 37.1492 -141.33227 22.64794 33.55717 12.52636 73.39996 18.88679 -19.59371 -135.34388 -19.56157 -0.52461 2.50554
0.1388 -0.3557 0.17886 174.87251 -42.96932 -3.11937 23.74654 5.43778 -6.06993 5.42463 7.75569 -2.11994 -8.10449 -20.41136 -19.48537 41.17629 80.80281 -8.01017 -1.49253 13.22089 18.21511 -23.80395 103.60238 -76.83018 -14.27427 1.46415 122.89645 -26.9297 37.12003 -142.74697 22.14784 32.94449 11.46693 73.68313 19.15393 -20.88701 -135.9785 -19.41277 -0.64053 2.43725
